PathFileType	4	(X/Y/Z)	distal_points_all_segments.trc
DataRate	CameraRate	NumFrames	NumMarkers	Units	OrigDataRate	OrigDataStartFrame	OrigNumFrames
60.0	60.0	11	18	m	60.0	1	290
Frame#	Time	worldbody			l_thigh			l_shank			l_foot			l_toes			r_thigh			r_shank			r_foot			r_toes			head			torso			l_uarm			l_larm			l_hand			r_uarm			r_larm			r_hand			pelvis_shifted		
		X1	Y1	Z1	X2	Y2	Z2	X3	Y3	Z3	X4	Y4	Z4	X5	Y5	Z5	X6	Y6	Z6	X7	Y7	Z7	X8	Y8	Z8	X9	Y9	Z9	X10	Y10	Z10	X11	Y11	Z11	X12	Y12	Z12	X13	Y13	Z13	X14	Y14	Z14	X15	Y15	Z15	X16	Y16	Z16	X17	Y17	Z17	X18	Y18	Z18
1	0.00000	0.000	0.000	0.000	0.255	0.699	0.470	0.244	0.672	0.084	0.241	0.680	-0.078	0.201	0.817	0.025	0.488	0.720	0.468	0.509	0.698	0.084	0.499	0.694	-0.077	0.518	0.846	0.021	0.362	0.713	1.569	0.362	0.725	1.354	0.150	0.645	1.107	0.099	0.714	0.883	0.055	0.767	0.653	0.608	0.705	1.112	0.617	0.791	0.888	0.633	0.858	0.657	0.379	0.700	0.933
2	0.01667	0.000	0.000	0.000	0.258	0.698	0.472	0.243	0.672	0.085	0.240	0.681	-0.077	0.201	0.818	0.027	0.485	0.721	0.470	0.508	0.699	0.086	0.494	0.694	-0.074	0.517	0.847	0.021	0.363	0.714	1.567	0.361	0.725	1.355	0.151	0.644	1.106	0.099	0.714	0.882	0.062	0.768	0.651	0.606	0.708	1.113	0.619	0.793	0.888	0.633	0.854	0.655	0.378	0.700	0.934
3	0.03333	0.000	0.000	0.000	0.256	0.698	0.471	0.243	0.673	0.084	0.241	0.682	-0.078	0.200	0.818	0.025	0.486	0.721	0.470	0.508	0.699	0.086	0.496	0.695	-0.075	0.517	0.847	0.022	0.364	0.713	1.567	0.361	0.724	1.356	0.151	0.643	1.106	0.100	0.713	0.882	0.061	0.761	0.650	0.607	0.707	1.112	0.617	0.791	0.886	0.634	0.852	0.654	0.378	0.700	0.934
4	0.05000	0.000	0.000	0.000	0.255	0.696	0.471	0.243	0.672	0.084	0.241	0.682	-0.078	0.199	0.818	0.025	0.487	0.721	0.470	0.508	0.699	0.086	0.496	0.696	-0.075	0.517	0.848	0.023	0.364	0.711	1.568	0.361	0.724	1.355	0.151	0.642	1.106	0.101	0.711	0.882	0.062	0.755	0.649	0.608	0.706	1.111	0.617	0.790	0.886	0.633	0.850	0.653	0.378	0.700	0.934
5	0.06667	0.000	0.000	0.000	0.255	0.694	0.471	0.242	0.672	0.084	0.241	0.682	-0.078	0.199	0.818	0.026	0.487	0.720	0.470	0.508	0.700	0.086	0.496	0.697	-0.075	0.517	0.848	0.023	0.364	0.710	1.568	0.361	0.723	1.355	0.151	0.641	1.106	0.101	0.710	0.882	0.065	0.749	0.648	0.608	0.705	1.111	0.618	0.790	0.885	0.632	0.847	0.652	0.378	0.699	0.934
6	0.08333	0.000	0.000	0.000	0.256	0.693	0.472	0.242	0.672	0.085	0.241	0.681	-0.078	0.200	0.818	0.026	0.487	0.720	0.469	0.509	0.699	0.085	0.496	0.696	-0.075	0.518	0.847	0.022	0.365	0.708	1.568	0.361	0.723	1.355	0.151	0.640	1.107	0.101	0.708	0.882	0.067	0.744	0.647	0.608	0.705	1.110	0.619	0.788	0.884	0.634	0.846	0.651	0.378	0.699	0.934
7	0.10000	0.000	0.000	0.000	0.256	0.691	0.472	0.243	0.673	0.084	0.240	0.681	-0.078	0.200	0.818	0.026	0.487	0.721	0.469	0.509	0.699	0.085	0.497	0.695	-0.076	0.518	0.847	0.021	0.366	0.708	1.568	0.361	0.722	1.356	0.151	0.639	1.107	0.101	0.707	0.882	0.068	0.740	0.647	0.607	0.705	1.110	0.619	0.786	0.883	0.638	0.846	0.651	0.379	0.698	0.934
8	0.11667	0.000	0.000	0.000	0.257	0.690	0.471	0.243	0.673	0.084	0.241	0.682	-0.078	0.200	0.818	0.026	0.486	0.721	0.469	0.509	0.699	0.085	0.498	0.694	-0.076	0.517	0.846	0.021	0.366	0.707	1.567	0.361	0.722	1.356	0.151	0.639	1.107	0.101	0.705	0.882	0.068	0.739	0.647	0.607	0.703	1.110	0.619	0.784	0.883	0.643	0.845	0.651	0.378	0.698	0.934
9	0.13333	0.000	0.000	0.000	0.256	0.689	0.471	0.242	0.673	0.084	0.241	0.683	-0.078	0.200	0.818	0.026	0.485	0.721	0.469	0.508	0.698	0.085	0.498	0.694	-0.076	0.517	0.846	0.021	0.365	0.708	1.567	0.361	0.722	1.355	0.151	0.638	1.108	0.101	0.704	0.882	0.067	0.738	0.647	0.606	0.702	1.110	0.618	0.782	0.883	0.647	0.845	0.652	0.378	0.698	0.934
10	0.15000	0.000	0.000	0.000	0.256	0.687	0.471	0.242	0.672	0.083	0.241	0.683	-0.079	0.199	0.818	0.026	0.485	0.721	0.468	0.508	0.699	0.085	0.498	0.695	-0.076	0.517	0.847	0.021	0.365	0.708	1.567	0.361	0.722	1.355	0.151	0.638	1.108	0.101	0.703	0.882	0.066	0.738	0.647	0.606	0.701	1.109	0.618	0.781	0.883	0.650	0.845	0.653	0.377	0.698	0.933
11	0.16667	0.000	0.000	0.000	0.256	0.686	0.471	0.242	0.672	0.083	0.241	0.683	-0.079	0.199	0.817	0.026	0.486	0.721	0.469	0.508	0.699	0.085	0.497	0.696	-0.076	0.517	0.848	0.022	0.365	0.708	1.567	0.361	0.721	1.355	0.151	0.638	1.108	0.102	0.701	0.882	0.064	0.737	0.647	0.606	0.702	1.109	0.618	0.780	0.882	0.651	0.847	0.653	0.377	0.697	0.933
